<?xml version="1.0" standalone="no"?>
<!DOCTYPE svg PUBLIC "-//W3C//DTD SVG 20010904//EN"
 "http://www.w3.org/TR/2001/REC-SVG-20010904/DTD/svg10.dtd">
<svg version="1.0" xmlns="http://www.w3.org/2000/svg"
 width="750.000000pt" height="750.000000pt" viewBox="0 0 750.000000 750.000000"
 preserveAspectRatio="xMidYMid meet">
<metadata>
Created by potrace 1.14, written by Peter Selinger 2001-2017
</metadata>
<g transform="translate(0.000000,750.000000) scale(0.100000,-0.100000)"
fill="#000000" stroke="none">
<path d="M1427 7012 c-56 -35 -54 -107 4 -137 25 -13 325 -15 2348 -15 1367 0
2329 4 2343 9 47 18 61 54 44 109 -18 55 134 52 -2388 52 -2174 -1 -2325 -2
-2351 -18z"/>
<path d="M1554 6815 c-4 -9 2 -210 6 -210 1 0 3 -34 5 -75 5 -98 11 -146 19
-159 4 -6 2 -11 -4 -11 -7 0 -8 -6 -2 -17 5 -10 12 -42 15 -72 l6 -54 -21 19
c-12 11 -32 28 -44 39 -39 36 -64 55 -73 55 -5 0 -11 4 -13 8 -4 11 -124 67
-177 83 -44 13 -208 17 -266 7 -32 -6 -167 -58 -175 -67 -3 -3 -24 -19 -47
-34 -83 -57 -152 -150 -188 -257 -24 -70 -30 -256 -10 -330 7 -27 11 -50 8
-50 -3 0 -1 -6 5 -12 6 -7 10 -15 9 -18 -4 -11 76 -190 84 -190 5 0 9 -5 9
-10 0 -28 156 -210 179 -210 6 0 11 -4 11 -9 0 -13 188 -128 215 -131 4 -1 75
-30 120 -50 123 -55 155 -68 155 -65 0 3 17 -4 38 -14 20 -11 78 -36 127 -57
322 -136 531 -292 576 -429 30 -93 10 -175 -53 -213 -42 -25 -123 -42 -173
-36 -43 5 -109 40 -138 72 -18 20 -18 20 17 32 51 17 85 63 79 109 -15 113
-216 149 -320 58 -43 -38 -63 -81 -63 -138 0 -47 19 -119 32 -119 4 0 8 -4 8
-10 0 -32 103 -124 182 -165 92 -46 162 -59 278 -52 130 9 227 48 314 127 78
71 121 191 105 293 -5 28 -6 53 -4 57 2 4 35 -23 72 -59 103 -99 181 -167 233
-201 12 -8 28 -19 34 -25 27 -23 76 -55 85 -55 5 0 11 -4 13 -8 5 -15 158 -99
264 -146 149 -66 326 -116 462 -132 l63 -7 -5 -36 c-9 -62 -13 -84 -31 -151
-9 -36 -18 -72 -20 -80 -7 -30 -47 -146 -61 -177 -8 -17 -14 -33 -14 -36 0 -2
-10 -26 -22 -53 -11 -27 -20 -51 -19 -53 2 -2 -1 -7 -6 -10 -5 -3 -19 -26 -32
-51 -25 -51 -43 -83 -52 -90 -3 -3 -8 -12 -11 -20 -19 -51 -215 -277 -290
-335 -61 -47 -118 -85 -127 -85 -6 0 -11 -5 -11 -11 0 -5 -4 -8 -9 -5 -5 3
-14 -1 -21 -9 -7 -8 -18 -15 -24 -15 -6 -1 -29 -9 -51 -20 -22 -11 -48 -19
-57 -20 -18 0 -22 -14 -18 -57 1 -13 -2 -24 -7 -24 -4 -1 -114 -2 -243 -3
l-235 -1 0 -110 c0 -60 -4 -115 -8 -121 -3 -6 -3 -14 1 -18 11 -12 9 -226 -3
-226 -7 0 -7 -3 0 -8 12 -8 14 -370 3 -388 -4 -6 -4 -14 0 -18 11 -12 9 -226
-3 -226 -7 0 -7 -3 0 -8 7 -4 11 -77 10 -196 l0 -190 -28 -7 c-15 -4 -27 -3
-27 2 0 6 -7 6 -19 0 -10 -6 -21 -8 -24 -5 -3 3 -28 -1 -55 -10 -50 -17 -112
-68 -112 -92 0 -8 -4 -14 -9 -14 -5 0 -8 -11 -5 -25 3 -15 0 -25 -8 -25 -9 0
-9 -3 0 -12 6 -6 8 -18 3 -27 -6 -14 -7 -36 -1 -43 5 -7 6 -48 0 -48 -8 0 -6
-37 3 -46 3 -4 2 -15 -4 -25 -6 -13 -6 -19 0 -19 6 0 8 -7 5 -15 -5 -13 200
-15 1815 -15 1727 0 1821 1 1822 18 1 9 0 22 -1 27 -1 6 -2 15 -1 20 6 47 5
193 -2 203 -5 6 -7 12 -3 12 4 0 -1 15 -10 33 -38 72 -109 107 -226 111 l-41
1 -1 755 -1 755 -230 1 -230 1 3 35 c3 34 2 36 -55 58 -32 13 -74 32 -93 43
-51 28 -104 60 -110 67 -3 3 -16 13 -30 22 -114 73 -303 303 -386 468 -15 30
-32 58 -37 61 -5 4 -7 11 -3 17 3 6 2 12 -2 14 -7 2 -25 46 -82 193 -12 33
-28 88 -35 125 -4 19 -10 40 -14 45 -3 6 -6 17 -6 25 0 8 -3 20 -7 26 -4 6
-10 40 -14 76 -5 51 -4 65 7 65 111 4 333 63 494 131 208 88 452 254 631 430
l52 51 -2 -67 c-4 -145 66 -257 204 -331 174 -93 391 -84 550 23 53 36 141
126 134 138 -3 4 -1 8 4 8 13 0 32 71 32 123 0 47 -16 97 -32 97 -4 0 -8 6 -8
13 0 18 -77 65 -118 73 -51 10 -128 -2 -173 -28 -82 -46 -73 -146 17 -185 l44
-19 -39 -32 c-53 -43 -84 -53 -156 -54 -121 0 -208 73 -199 167 9 96 34 146
112 222 120 117 279 206 640 355 15 6 30 11 35 10 4 -1 7 2 7 6 0 5 6 9 13 9
7 0 33 9 58 20 24 12 62 29 84 38 232 98 340 177 451 328 44 59 119 197 108
197 -4 0 -1 6 5 13 6 8 8 17 4 20 -3 4 0 7 7 7 7 0 11 3 7 6 -3 3 -1 18 4 32
26 68 36 256 18 339 -7 32 -13 60 -13 63 -5 33 -72 137 -120 186 -53 53 -186
145 -186 127 0 -3 -6 -1 -12 4 -7 6 -26 14 -43 18 -16 5 -39 11 -50 13 -29 8
-213 7 -255 -2 -19 -4 -73 -25 -119 -47 -75 -37 -93 -49 -135 -84 -6 -5 -21
-18 -33 -28 -20 -18 -20 -17 -19 18 0 19 3 35 6 35 3 0 6 24 8 54 1 29 5 64 7
77 3 13 8 96 11 184 3 88 7 168 9 177 3 16 -133 17 -2237 15 -1483 -1 -2242
-5 -2244 -12z m-450 -597 c6 10 30 9 85 -2 47 -10 114 -48 159 -89 43 -40 52
-49 95 -100 84 -99 183 -365 145 -389 -7 -4 -16 -2 -20 5 -6 9 -8 9 -8 -1 0
-7 -5 -10 -11 -7 -30 19 -121 -89 -96 -114 6 -6 8 -11 3 -11 -16 0 29 -60 53
-70 58 -23 147 -32 169 -17 6 5 12 7 12 3 0 -8 60 22 82 41 18 16 38 10 38
-10 0 -46 238 -512 278 -544 9 -7 13 -16 9 -19 -3 -4 -34 11 -69 33 -35 22
-83 50 -108 63 -25 12 -48 27 -51 32 -3 5 -10 10 -15 10 -5 0 -43 16 -84 35
-41 19 -133 59 -205 89 -71 30 -138 59 -147 64 -10 6 -25 10 -33 10 -8 0 -15
4 -15 10 0 5 -3 9 -7 8 -5 -2 -33 8 -63 22 -30 13 -58 23 -62 22 -5 -1 -8 3
-8 8 0 5 -3 9 -7 8 -10 -2 -102 42 -128 62 -26 20 -125 119 -146 146 -24 31
-93 172 -96 198 -2 11 -8 32 -13 46 -14 35 -19 153 -9 208 17 93 86 189 156
218 18 8 35 14 38 15 2 0 17 6 32 14 19 10 29 11 34 4 4 -8 9 -8 13 -1z m5361
2 c0 -1 9 -3 20 -4 32 -4 95 -29 95 -38 0 -4 7 -8 14 -8 23 0 99 -95 118 -147
22 -62 23 -200 2 -273 -8 -30 -16 -61 -16 -67 -1 -7 -5 -13 -10 -13 -4 0 -8
-5 -8 -11 0 -18 -44 -109 -52 -109 -5 0 -8 -4 -8 -10 0 -24 -143 -170 -166
-170 -8 0 -14 -4 -14 -8 0 -11 -333 -164 -385 -176 -5 -2 -32 -13 -60 -25 -53
-24 -97 -43 -105 -46 -3 -1 -27 -12 -55 -25 -27 -13 -52 -24 -55 -25 -14 -3
-138 -69 -200 -106 -39 -23 -74 -39 -77 -35 -3 3 -1 6 5 6 7 0 12 7 12 15 0 8
5 15 10 15 6 0 10 6 10 14 0 8 3 16 8 18 4 2 18 23 31 48 36 68 159 310 160
316 2 15 45 104 50 104 4 0 16 -7 28 -15 12 -8 29 -16 40 -18 10 -1 23 -5 28
-8 10 -7 85 -3 120 5 11 2 25 5 30 5 25 2 66 51 72 86 10 61 -34 114 -101 122
-17 2 -33 6 -38 11 -13 13 21 144 57 221 87 184 237 329 357 348 18 3 34 6 35
7 3 3 48 -1 48 -4z"/>
</g>
</svg>
